<svg xmlns="http://www.w3.org/2000/svg" version="1.1" xmlns:xlink="http://www.w3.org/1999/xlink" xmlns:svgjs="http://svgjs.dev/svgjs" width="1500" height="1500" viewBox="0 0 1500 1500"><rect width="1500" height="1500" fill="#ffffff"></rect><g transform="matrix(0.6666666666666666,0,0,0.6666666666666666,249.39393944519924,624.2456401778003)"><svg viewBox="0 0 396 100" data-background-color="#ffffff" preserveAspectRatio="xMidYMid meet" height="378" width="1500" xmlns="http://www.w3.org/2000/svg" xmlns:xlink="http://www.w3.org/1999/xlink"><g id="tight-bounds" transform="matrix(1,0,0,1,0.23999997970111053,-0.0974762610318578)"><svg viewBox="0 0 395.52 100.1949525220637" height="100.1949525220637" width="395.52"><g><svg viewBox="0 0 562.2958409613543 142.443378561076" height="100.1949525220637" width="395.52"><g transform="matrix(1,0,0,1,166.7758409613543,19.68645825265233)"><svg viewBox="0 0 395.52 103.07046205577134" height="103.07046205577134" width="395.52"><g id="textblocktransform"><svg viewBox="0 0 395.52 103.07046205577134" height="103.07046205577134" width="395.52" id="textblock"><g><svg viewBox="0 0 395.52 103.07046205577134" height="103.07046205577134" width="395.52"><g transform="matrix(1,0,0,1,0,0)"><svg width="395.52" viewBox="4.35 -35.5 172.47324321807503 44.95" height="103.07046205577134" data-palette-color="#471aa0"><path d="M24.85 0L6.45 0Q5.45 0 4.9-0.58 4.35-1.15 4.35-2.15L4.35-2.15 4.35-33.35Q4.35-34.4 4.88-34.95 5.4-35.5 6.4-35.5L6.4-35.5Q7.4-35.5 7.93-34.95 8.45-34.4 8.45-33.35L8.45-33.35 8.45-3.6 24.85-3.6Q25.75-3.6 26.25-3.13 26.75-2.65 26.75-1.8L26.75-1.8Q26.75-0.95 26.25-0.48 25.75 0 24.85 0L24.85 0ZM32.95 0.25L32.95 0.25Q31.95 0.25 31.45-0.33 30.95-0.9 30.95-1.95L30.95-1.95 30.95-22.4Q30.95-23.45 31.45-24 31.95-24.55 32.95-24.55L32.95-24.55Q33.9-24.55 34.45-24 35-23.45 35-22.4L35-22.4 35-1.95Q35-0.9 34.47-0.33 33.95 0.25 32.95 0.25ZM32.95-30.15L32.95-30.15Q31.7-30.15 31-30.83 30.3-31.5 30.3-32.65L30.3-32.65Q30.3-33.85 31-34.48 31.7-35.1 32.95-35.1L32.95-35.1Q34.25-35.1 34.92-34.48 35.6-33.85 35.6-32.65L35.6-32.65Q35.6-31.5 34.92-30.83 34.25-30.15 32.95-30.15ZM44.55 0.35L44.55 0.35Q43.55 0.35 43.05-0.2 42.55-0.75 42.55-1.75L42.55-1.75 42.55-22.6Q42.55-23.6 43.05-24.13 43.55-24.65 44.5-24.65L44.5-24.65Q45.45-24.65 45.97-24.13 46.5-23.6 46.5-22.6L46.5-22.6 46.5-18.3 45.95-18.9Q47-21.8 49.37-23.28 51.75-24.75 54.85-24.75L54.85-24.75Q57.75-24.75 59.67-23.7 61.6-22.65 62.55-20.53 63.5-18.4 63.5-15.15L63.5-15.15 63.5-1.75Q63.5-0.75 62.97-0.2 62.45 0.35 61.5 0.35L61.5 0.35Q60.5 0.35 59.97-0.2 59.45-0.75 59.45-1.75L59.45-1.75 59.45-14.9Q59.45-18.3 58.12-19.88 56.8-21.45 53.9-21.45L53.9-21.45Q50.55-21.45 48.57-19.38 46.6-17.3 46.6-13.85L46.6-13.85 46.6-1.75Q46.6 0.35 44.55 0.35ZM81.69 9.45L81.69 9.45Q79.04 9.45 76.52 8.83 73.99 8.2 71.94 6.85L71.94 6.85Q71.34 6.5 71.17 6 70.99 5.5 71.09 5.03 71.19 4.55 71.54 4.17 71.89 3.8 72.37 3.7 72.84 3.6 73.34 3.85L73.34 3.85Q75.54 5.2 77.54 5.7 79.54 6.2 81.49 6.2L81.49 6.2Q85.04 6.2 86.87 4.3 88.69 2.4 88.69-1.2L88.69-1.2 88.69-6.85 89.19-6.85Q88.44-3.95 86.02-2.25 83.59-0.55 80.34-0.55L80.34-0.55Q76.99-0.55 74.54-2.08 72.09-3.6 70.77-6.35 69.44-9.1 69.44-12.7L69.44-12.7Q69.44-15.4 70.19-17.63 70.94-19.85 72.37-21.43 73.79-23 75.82-23.88 77.84-24.75 80.34-24.75L80.34-24.75Q83.64-24.75 86.04-23.08 88.44-21.4 89.14-18.55L89.14-18.55 88.64-17.95 88.64-22.6Q88.64-23.6 89.17-24.13 89.69-24.65 90.64-24.65L90.64-24.65Q91.64-24.65 92.14-24.13 92.64-23.6 92.64-22.6L92.64-22.6 92.64-1.75Q92.64 3.8 89.87 6.63 87.09 9.45 81.69 9.45ZM81.09-3.85L81.09-3.85Q83.44-3.85 85.14-4.93 86.84-6 87.77-8 88.69-10 88.69-12.7L88.69-12.7Q88.69-16.75 86.64-19.13 84.59-21.5 81.09-21.5L81.09-21.5Q78.79-21.5 77.09-20.43 75.39-19.35 74.47-17.38 73.54-15.4 73.54-12.7L73.54-12.7Q73.54-8.65 75.59-6.25 77.64-3.85 81.09-3.85ZM108.84 0.45L108.84 0.45Q105.89 0.45 103.97-0.63 102.04-1.7 101.07-3.85 100.09-6 100.09-9.2L100.09-9.2 100.09-22.6Q100.09-23.65 100.62-24.15 101.14-24.65 102.09-24.65L102.09-24.65Q103.09-24.65 103.62-24.15 104.14-23.65 104.14-22.6L104.14-22.6 104.14-9.25Q104.14-6.05 105.47-4.48 106.79-2.9 109.64-2.9L109.64-2.9Q112.74-2.9 114.69-5 116.64-7.1 116.64-10.5L116.64-10.5 116.64-22.6Q116.64-23.65 117.17-24.15 117.69-24.65 118.69-24.65L118.69-24.65Q119.64-24.65 120.17-24.15 120.69-23.65 120.69-22.6L120.69-22.6 120.69-1.75Q120.69 0.35 118.74 0.35L118.74 0.35Q117.79 0.35 117.27-0.2 116.74-0.75 116.74-1.75L116.74-1.75 116.74-6.3 117.39-5.6Q116.39-2.65 114.12-1.1 111.84 0.45 108.84 0.45ZM130.29 0.25L130.29 0.25Q129.29 0.25 128.79-0.33 128.29-0.9 128.29-1.95L128.29-1.95 128.29-22.4Q128.29-23.45 128.79-24 129.29-24.55 130.29-24.55L130.29-24.55Q131.24-24.55 131.79-24 132.34-23.45 132.34-22.4L132.34-22.4 132.34-1.95Q132.34-0.9 131.81-0.33 131.29 0.25 130.29 0.25ZM130.29-30.15L130.29-30.15Q129.04-30.15 128.34-30.83 127.64-31.5 127.64-32.65L127.64-32.65Q127.64-33.85 128.34-34.48 129.04-35.1 130.29-35.1L130.29-35.1Q131.59-35.1 132.26-34.48 132.94-33.85 132.94-32.65L132.94-32.65Q132.94-31.5 132.26-30.83 131.59-30.15 130.29-30.15ZM143.19 0.35L143.19 0.35Q142.24 0.35 141.71-0.2 141.19-0.75 141.19-1.75L141.19-1.75 141.19-21.15 137.99-21.15Q137.19-21.15 136.71-21.58 136.24-22 136.24-22.75L136.24-22.75Q136.24-23.5 136.71-23.9 137.19-24.3 137.99-24.3L137.99-24.3 142.28-24.3 141.19-23.25 141.19-25.15Q141.19-29.9 143.51-32.4 145.84-34.9 150.34-35.3L150.34-35.3 151.78-35.45Q152.49-35.5 152.91-35.2 153.34-34.9 153.46-34.45 153.59-34 153.49-33.52 153.39-33.05 153.03-32.7 152.69-32.35 152.19-32.3L152.19-32.3 151.03-32.2Q147.99-31.95 146.61-30.35 145.24-28.75 145.24-25.65L145.24-25.65 145.24-23.55 144.64-24.3 150.64-24.3Q151.49-24.3 151.94-23.9 152.39-23.5 152.39-22.75L152.39-22.75Q152.39-22 151.94-21.58 151.49-21.15 150.64-21.15L150.64-21.15 145.24-21.15 145.24-1.75Q145.24 0.35 143.19 0.35ZM161.58 9.35L161.58 9.35Q160.83 9.35 160.38 8.95 159.93 8.55 159.86 7.88 159.78 7.2 160.08 6.5L160.08 6.5 163.53-1.25 163.53 0.5 153.93-21.8Q153.63-22.55 153.73-23.2 153.83-23.85 154.33-24.25 154.83-24.65 155.73-24.65L155.73-24.65Q156.53-24.65 156.98-24.3 157.43-23.95 157.78-23.05L157.78-23.05 165.98-2.95 164.63-2.95 172.93-23.05Q173.33-23.95 173.78-24.3 174.23-24.65 175.08-24.65L175.08-24.65Q175.88-24.65 176.31-24.25 176.73-23.85 176.81-23.23 176.88-22.6 176.58-21.85L176.58-21.85 163.78 7.75Q163.38 8.65 162.91 9 162.43 9.35 161.58 9.35Z" opacity="1" transform="matrix(1,0,0,1,0,0)" fill="#000000" class="wordmark-text-0" data-fill-palette-color="primary" id="text-0"></path></svg></g></svg></g></svg></g></svg></g><g><svg viewBox="0 0 142.44337856107603 142.443378561076" height="142.443378561076" width="142.44337856107603"><g><svg></svg></g><g id="icon-0"><svg viewBox="0 0 142.44337856107603 142.443378561076" height="142.443378561076" width="142.44337856107603"><g><path transform="scale(1.42443,1.42443)" d="M30 100c-16.569 0-30-13.431-30-30v-40c0-16.569 13.431-30 30-30h40c16.569 0 30 13.431 30 30v40c0 16.569-13.431 30-30 30z" fill="#000000" fill-rule="nonzero" stroke="none" stroke-width="1" stroke-linecap="butt" stroke-linejoin="miter" stroke-miterlimit="10" stroke-dasharray="" stroke-dashoffset="0" font-family="none" font-weight="none" font-size="none" text-anchor="none" style="mix-blend-mode: normal" data-fill-palette-color="accent"></path></g><g transform="matrix(1,0,0,1,28.48867571221522,29.942025485844198)"><svg viewBox="0 0 85.4660271366456 82.5593275893876" height="82.5593275893876" width="85.4660271366456"><g><svg xmlns="http://www.w3.org/2000/svg" xmlns:xlink="http://www.w3.org/1999/xlink" version="1.1" x="0" y="0" viewBox="3.057469292899283 5.219999999999995 93.97612807667778 90.78" enable-background="new 0 0 100 100" xml:space="preserve" height="82.5593275893876" width="85.4660271366456" class="icon-cg-0" data-fill-palette-color="quaternary" id="cg-0"><path d="M3.088 96c0 0-0.945-4.018 7.68-8.625 0 0 7.958-4.091 18.473-8.58l0.646-8.067 7.465-0.602 0.827-7.68c0 0-3.899-2.244-4.372-10.043 0 0-2.126-2.718-2.245-9.215 0 0 0.119-2.126 1.537-1.299l0.236-14.649c0 0-0.827-12.997 26.583-14.533 0 0-3.545 2.363-2.127 3.072 0 0 11.341 7.562 9.451 13.351v12.76c0 0 2.954-1.299 1.301 5.553 0 0-0.475 5.435-2.246 5.435 0 0-0.827 6.972-3.543 9.099l-0.237 8.27 7.062 0.806 1.149 6.929c0 0 18.607 9.042 21.797 10.813 0 0 4.845 3.899 4.49 7.09L3.088 96z" fill="#ffffff" data-fill-palette-color="quaternary"></path><path d="M21.511 33.919c0 0 45.208 1.179 60.146-3.539 0 0 3.144-8.648-14.151-6.29 0 0 1.965-14.939-6.685-18.87 0 0-7.468 6.683-21.62 0.393 0 0-10.768 1.485-7.766 18.527 0.087 0.494 0.186 1 0.296 1.521C31.732 25.664 20.332 24.091 21.511 33.919z" fill="#ffffff" data-fill-palette-color="quaternary"></path></svg></g></svg></g></svg></g></svg></g></svg></g><defs></defs></svg><rect width="395.52" height="100.1949525220637" fill="none" stroke="none" visibility="hidden"></rect></g></svg></g></svg>